<?xml version="1.0" encoding="UTF-8" standalone="no"?>
<!-- Created with Inkscape (http://www.inkscape.org/) -->

<svg
   width="109.00833mm"
   height="56.091667mm"
   viewBox="0 0 109.00833 56.091667"
   version="1.1"
   id="svg1"
   xml:space="preserve"
   inkscape:export-filename="Logo.png"
   inkscape:export-xdpi="96"
   inkscape:export-ydpi="96"
   xmlns:inkscape="http://www.inkscape.org/namespaces/inkscape"
   xmlns:sodipodi="http://sodipodi.sourceforge.net/DTD/sodipodi-0.dtd"
   xmlns="http://www.w3.org/2000/svg"
   xmlns:svg="http://www.w3.org/2000/svg"><sodipodi:namedview
     id="namedview1"
     pagecolor="#ffffff"
     bordercolor="#000000"
     borderopacity="0.25"
     inkscape:showpageshadow="2"
     inkscape:pageopacity="0.0"
     inkscape:pagecheckerboard="0"
     inkscape:deskcolor="#d1d1d1"
     inkscape:document-units="mm"><inkscape:page
       x="0"
       y="0"
       width="109.00833"
       height="56.091667"
       id="page2"
       margin="0"
       bleed="0" /></sodipodi:namedview><defs
     id="defs1" /><g
     inkscape:label="Layer 1"
     inkscape:groupmode="layer"
     id="layer1"
     transform="translate(-86.254166,-77.522919)"><path
       style="fill:#000000"
       d="m 90.348681,128.84153 c -0.194619,-0.3149 0.366742,-3.85149 0.724377,-4.56359 0.205637,-0.40946 0.547105,-0.46285 2.538002,-0.39688 2.291401,0.0759 2.300725,0.0791 2.384117,0.80384 0.07491,0.65102 -3.6e-5,0.7276 -0.711989,0.7276 -0.43764,0 -0.869294,-0.11906 -0.959231,-0.26458 -0.08994,-0.14552 -0.607408,-0.26458 -1.149935,-0.26458 -0.834086,0 -0.992915,0.0919 -1.02851,0.59531 -0.02315,0.32742 -0.113416,0.98226 -0.200585,1.45521 -0.157504,0.85454 -0.151832,0.85989 0.911833,0.85989 0.588677,0 1.070322,-0.11906 1.070322,-0.26458 0,-0.14552 0.357188,-0.26458 0.79375,-0.26458 0.861509,0 0.927165,0.14381 0.535715,1.1734 -0.248937,0.65475 -0.337001,0.67868 -2.497926,0.67868 -1.26517,0 -2.313891,-0.11973 -2.40994,-0.27514 z m 7.019971,-0.11934 c -0.258522,-0.3115 -0.260414,-0.77068 -0.009,-2.18282 0.526,-2.95439 0.26895,-2.71437 2.906948,-2.71437 1.81097,0 2.36864,0.0874 2.48445,0.38915 0.14707,0.38326 -0.48325,4.19956 -0.77034,4.66409 -0.2617,0.42344 -4.242923,0.28873 -4.612062,-0.15605 z m 3.659128,-1.78833 c 0.0358,-0.47295 0.0899,-1.09802 0.12022,-1.38907 0.0463,-0.44401 -0.12582,-0.54225 -1.06936,-0.61052 -1.037028,-0.075 -1.124475,-0.0313 -1.124475,0.56224 0,0.35398 -0.07441,1.01567 -0.165364,1.47042 -0.165258,0.82629 -0.164608,0.82682 1.004256,0.82682 1.129833,0 1.171833,-0.0293 1.234723,-0.85989 z m 3.03618,1.5875 c 0.077,-0.32743 0.28489,-1.51805 0.46186,-2.64584 l 0.32178,-2.05052 h 1.26879 c 1.40481,0 1.4087,0.005 1.72029,2.20949 0.21756,1.53926 0.54134,1.20572 0.7942,-0.81815 0.16643,-1.33204 0.20778,-1.39134 0.97018,-1.39134 0.7575,0 0.7879,0.0419 0.62345,0.8599 -0.0951,0.47294 -0.30601,1.66357 -0.46872,2.64583 l -0.29584,1.78594 h -1.27215 c -1.26269,0 -1.27345,-0.007 -1.44635,-0.99219 -0.0958,-0.5457 -0.25945,-1.4089 -0.36364,-1.91823 l -0.18946,-0.92604 -0.3098,1.40209 c -0.17039,0.77114 -0.3098,1.63435 -0.3098,1.91823 0,0.4011 -0.18331,0.51614 -0.82243,0.51614 -0.71801,0 -0.80465,-0.0756 -0.68236,-0.59531 z m 7.76659,0.41892 c -0.097,-0.097 -0.17638,-0.45752 -0.17638,-0.80112 0,-0.61058 0.0389,-0.62074 1.71979,-0.44853 1.46775,0.15038 1.71979,0.11471 1.71979,-0.24339 0,-0.31835 -0.32856,-0.43888 -1.36181,-0.49956 -1.66762,-0.0979 -2.02573,-0.52287 -1.66648,-1.97748 l 0.25016,-1.01291 h 2.24896 2.24896 l 0.0837,0.72761 c 0.0716,0.62255 -0.0121,0.7276 -0.5797,0.7276 -0.36488,0 -0.737,-0.11906 -0.82694,-0.26458 -0.0899,-0.14552 -0.629,-0.26458 -1.19793,-0.26458 -0.81078,0 -1.00149,0.0858 -0.88212,0.39687 0.0999,0.2603 0.51275,0.39688 1.19971,0.39688 0.57608,0 1.29112,0.13042 1.58897,0.28983 0.4612,0.24682 0.51578,0.45099 0.36788,1.37593 -0.0955,0.59736 -0.30209,1.24084 -0.45905,1.42996 -0.29926,0.36059 -3.9418,0.5032 -4.27753,0.16747 z m 7.39755,-0.66699 c 0.0874,-0.48203 0.25713,-1.34625 0.3771,-1.9205 0.2611,-1.24981 0.15787,-1.46945 -0.69061,-1.46945 -0.46945,0 -0.64584,-0.14453 -0.64584,-0.52917 0,-0.49245 0.17639,-0.52917 2.54185,-0.52917 2.20913,0 2.52082,0.0548 2.38125,0.41852 -0.0883,0.23018 -0.1606,0.46831 -0.1606,0.52916 0,0.0609 -0.42375,0.11066 -0.94166,0.11066 -0.51791,0 -0.87926,0.10095 -0.80301,0.22433 0.0763,0.12339 -0.0123,1.04612 -0.19688,2.05052 -0.32644,1.77679 -0.35831,1.82842 -1.17805,1.90885 -0.82066,0.0805 -0.8384,0.0599 -0.68355,-0.79375 z m 5.27711,0.11577 c 0.0758,-0.40018 0.28792,-1.56104 0.47138,-2.57968 l 0.33357,-1.85209 2.47484,-0.0766 c 1.36117,-0.0422 2.58966,0.0382 2.72999,0.1785 0.14984,0.14984 0.17748,0.87661 0.067,1.76103 -0.14808,1.18522 -0.29915,1.53493 -0.7094,1.64221 -0.31088,0.0813 -0.46182,0.28245 -0.37399,0.49842 0.081,0.19915 0.21952,0.54069 0.30785,0.75897 0.12157,0.30044 -0.0329,0.39688 -0.63557,0.39688 -0.64676,0 -0.84811,-0.14896 -1.07288,-0.79375 -0.2266,-0.65002 -0.42412,-0.79375 -1.09083,-0.79375 -0.69292,0 -0.83777,0.11817 -0.97288,0.79375 -0.13183,0.65914 -0.28663,0.79375 -0.91281,0.79375 -0.67964,0 -0.74046,-0.0718 -0.61625,-0.72761 z m 4.61145,-2.84427 c 0,-0.61736 -0.0882,-0.66145 -1.32291,-0.66145 -1.23472,0 -1.32292,0.0441 -1.32292,0.66145 0,0.61737 0.0882,0.66146 1.32292,0.66146 1.23472,0 1.32291,-0.0441 1.32291,-0.66146 z m 3.08681,3.39549 c -0.26377,-0.26377 -0.2138,-1.54392 0.13393,-3.43113 0.2946,-1.59883 0.34821,-1.68415 1.05833,-1.68415 0.41141,0 0.74788,0.0298 0.74771,0.0661 -1.8e-4,0.0364 -0.16494,0.92935 -0.36614,1.98437 l -0.36583,1.91823 h 1.01561 c 0.96623,0 1.02407,-0.0482 1.1898,-0.99219 0.49788,-2.83588 0.49986,-2.84051 1.24924,-2.92799 0.39447,-0.046 0.71705,0.0135 0.71685,0.1323 -8.7e-4,0.52133 -0.78666,4.62127 -0.93022,4.85357 -0.17698,0.28636 -4.17119,0.35893 -4.44928,0.0808 z m 6.78484,-0.25596 c -0.1958,-0.51027 0.3603,-4.34918 0.67572,-4.6646 0.1196,-0.1196 1.21842,-0.18258 2.44182,-0.13994 2.20806,0.0769 2.22497,0.0829 2.30808,0.80512 0.0752,0.65376 0.001,0.7276 -0.72761,0.7276 -0.44623,0 -0.81132,-0.11906 -0.81132,-0.26458 0,-0.14552 -0.50602,-0.26378 -1.12448,-0.26279 l -1.12448,0.002 -0.071,1.45342 -0.071,1.45341 h 0.91532 c 0.50343,0 0.98891,-0.11906 1.07884,-0.26458 0.0899,-0.14552 0.45415,-0.26458 0.80937,-0.26458 0.49753,0 0.64584,0.13974 0.64584,0.60854 0,1.01728 -0.49254,1.24354 -2.70705,1.24354 -1.67332,0 -2.10398,-0.0832 -2.23797,-0.43235 z m 7.59117,0.3662 c 1.7e-4,-0.0364 0.16397,-0.9243 0.364,-1.97315 0.20002,-1.04886 0.2991,-1.97159 0.22017,-2.05052 -0.0789,-0.0789 -0.42133,-0.14351 -0.76087,-0.14351 -0.44098,0 -0.61737,-0.15119 -0.61737,-0.52917 0,-0.49245 0.17639,-0.52917 2.54185,-0.52917 2.20914,0 2.52083,0.0548 2.38125,0.41852 -0.0883,0.23018 -0.1606,0.46831 -0.1606,0.52916 0,0.0609 -0.42374,0.11066 -0.94165,0.11066 -0.51791,0 -0.88527,0.0912 -0.81636,0.20274 0.0689,0.1115 0.0181,0.79611 -0.11293,1.52135 -0.45099,2.49625 -0.45776,2.50924 -1.3091,2.50924 -0.43379,0 -0.78857,-0.0298 -0.78839,-0.0661 z m 5.37485,-0.52916 c 0.0775,-0.32743 0.2922,-1.51805 0.47716,-2.64584 0.32641,-1.99036 0.35805,-2.05052 1.07844,-2.05052 0.56576,0 0.74215,0.12577 0.74215,0.52917 0,0.29104 -0.12609,0.52917 -0.2802,0.52917 -0.15411,0 -0.21127,0.11153 -0.12702,0.24784 0.0842,0.13632 0.0143,1.08882 -0.15545,2.11667 -0.30144,1.82526 -0.32689,1.86882 -1.09229,1.86882 -0.67803,0 -0.76467,-0.0802 -0.64279,-0.59531 z m 3.65729,0.13229 c -0.23146,-0.43465 0.26193,-3.97687 0.6389,-4.58681 0.21695,-0.35104 4.54572,-0.30526 4.76552,0.0504 0.22337,0.36141 -0.39545,4.21486 -0.74974,4.66871 -0.16746,0.21452 -0.98725,0.33073 -2.33314,0.33073 -1.70583,0 -2.11883,-0.0824 -2.32154,-0.46302 z m 3.76256,-2.07791 c 0.0918,-0.6699 0.10098,-1.32474 0.0204,-1.4552 -0.0806,-0.13046 -0.58605,-0.2372 -1.12317,-0.2372 -0.83347,0 -0.978,0.0872 -0.9863,0.59531 -0.005,0.32742 -0.0917,0.98226 -0.19182,1.45521 l -0.1821,0.85989 h 1.14805 1.14805 z m 2.91614,2.07791 c 0.075,-0.25466 0.26781,-1.23693 0.42843,-2.18281 0.46368,-2.73064 0.40473,-2.64584 1.83942,-2.64584 h 1.27461 l 0.17383,1.39134 c 0.25287,2.02387 0.57665,2.35741 0.79421,0.81815 0.28065,-1.98565 0.3916,-2.20949 1.09513,-2.20949 0.75751,0 0.75813,0.007 0.24676,2.91042 -0.21789,1.23693 -0.39632,2.27872 -0.39652,2.3151 -2e-4,0.0364 -0.5845,0.0661 -1.29845,0.0661 h -1.29809 l -0.1906,-1.38906 c -0.33298,-2.42661 -0.52872,-2.53524 -0.8932,-0.49571 -0.32866,1.83906 -0.35592,1.88477 -1.12438,1.88477 -0.62562,0 -0.7595,-0.0952 -0.65115,-0.46302 z m 14.87935,-1.5875 c 0.5642,-3.28967 0.54263,-3.24115 1.44111,-3.24115 0.87781,0 0.87669,-0.0134 0.24788,2.97656 l -0.20866,0.99219 h 1.42708 c 1.34583,0 1.42708,0.0377 1.42708,0.66146 0,0.65576 -0.0202,0.66146 -2.34308,0.66146 h -2.34309 z m 5.65741,1.75771 c 0,-0.16104 0.19372,-1.35166 0.43049,-2.64583 0.42729,-2.3355 0.43634,-2.35303 1.21546,-2.35303 h 0.78496 l -0.19,1.38906 c -0.1045,0.76399 -0.29132,1.65696 -0.41515,1.98438 -0.21788,0.57606 -0.17404,0.59531 1.35579,0.59531 1.57017,0 1.72867,0.10093 1.42035,0.9044 -0.12879,0.33564 -0.60038,0.41852 -2.38125,0.41852 -1.44674,0 -2.22065,-0.10205 -2.22065,-0.29281 z m 5.94661,0.0177 c -0.20084,-0.32497 0.3552,-3.88018 0.71376,-4.56361 0.21448,-0.40882 0.56081,-0.46275 2.54861,-0.39688 2.25704,0.0748 2.3004,0.0887 2.3004,0.73769 0,0.49417 -0.15828,0.68386 -0.62583,0.75001 -0.34421,0.0487 -0.75497,-0.0406 -0.91282,-0.19844 -0.15784,-0.15784 -0.71408,-0.28698 -1.23609,-0.28698 -0.7954,0 -0.95593,0.0964 -0.99121,0.59531 -0.0232,0.32742 -0.11342,0.98226 -0.20059,1.45521 -0.1575,0.85454 -0.15183,0.85989 0.91184,0.85989 0.58868,0 1.07032,-0.11906 1.07032,-0.26458 0,-0.14552 0.35719,-0.26458 0.79375,-0.26458 0.86151,0 0.92717,0.14381 0.53572,1.1734 -0.24894,0.65475 -0.33701,0.67868 -2.49793,0.67868 -1.26506,0 -2.31389,-0.11974 -2.40993,-0.27512 z m -98.021608,-7.3978 c -0.551126,-0.55112 -0.643478,-1.21438 -0.363802,-2.61276 0.162433,-0.81216 0.192609,-0.82682 1.702218,-0.82682 1.479882,0 1.539956,0.027 1.620572,0.7276 0.07794,0.67734 0.178544,0.73309 1.456378,0.80701 1.611981,0.0932 1.699674,-0.0112 2.176398,-2.59294 0.446875,-2.42007 0.493914,-2.53652 1.15312,-2.85468 0.476947,-0.23019 0.195723,-0.28793 -1.473019,-0.30242 l -2.06251,-0.0179 0.179031,-0.99219 c 0.09847,-0.5457 0.229951,-1.08149 0.292187,-1.19063 0.155668,-0.27298 6.167345,-0.25217 6.167345,0.0213 0,0.12088 -0.41634,2.29377 -0.9252,4.82865 -0.735812,3.66539 -1.039704,4.70364 -1.484524,5.07188 -0.473406,0.3919 -1.123772,0.46302 -4.234172,0.46302 -3.322077,0 -3.725654,-0.0508 -4.204022,-0.52917 z m 13.493748,0.30938 c 0,-1.11139 1.94378,-9.49716 2.2901,-9.87984 0.39089,-0.43193 0.9128,-0.4837 4.87576,-0.4837 5.01157,0 5.26956,0.0898 5.26956,1.83459 0,0.81912 -0.85063,5.57817 -1.45733,8.15343 -0.12648,0.53683 -0.29853,0.59531 -1.7514,0.59531 -1.53511,0 -1.60466,-0.0281 -1.4738,-0.59531 0.0755,-0.32743 0.21696,-0.98227 0.31429,-1.45521 l 0.17695,-0.8599 h -2.25122 -2.25122 l -0.3021,1.45521 -0.3021,1.45521 h -1.56875 c -0.8628,0 -1.56874,-0.0989 -1.56874,-0.21979 z m 9.02963,-6.52709 c 0.0956,-0.58208 0.12006,-1.14763 0.0544,-1.25677 -0.0657,-0.10914 -1.33277,-0.19465 -2.81577,-0.19002 -2.39466,0.007 -2.64049,0.0507 -2.19703,0.38645 0.38857,0.29418 0.46526,0.58799 0.34573,1.32458 l -0.15361,0.94655 2.29626,-0.0762 2.29626,-0.0762 z m 6.58079,6.21771 c -0.29104,-0.29104 -0.52917,-0.68918 -0.52917,-0.88476 0,-0.19558 0.35704,-2.13034 0.79343,-4.29948 0.61902,-3.07696 0.91626,-4.04566 1.35223,-4.4069 0.48351,-0.40064 1.16086,-0.46302 5.0274,-0.46302 4.11583,0 4.51038,0.0418 4.99777,0.52916 0.51846,0.51846 0.68744,1.66094 0.36857,2.4919 -0.1208,0.3148 -0.53937,0.41852 -1.68893,0.41852 -1.30582,0 -1.54848,-0.077 -1.66671,-0.52917 -0.12803,-0.48958 -0.35302,-0.52782 -3.00743,-0.51126 -2.14648,0.0134 -2.72892,0.0858 -2.31269,0.28763 l 0.55635,0.26972 -0.49362,2.40663 c -0.39201,1.91122 -0.42484,2.45028 -0.15948,2.61873 0.18379,0.11666 1.19317,0.21394 2.24307,0.21617 1.64051,0.003 1.94874,-0.0704 2.19212,-0.52512 0.23516,-0.43938 0.554,-0.52916 1.87923,-0.52916 1.39329,0 1.57946,0.0588 1.46565,0.46302 -0.0717,0.25466 -0.20822,0.84982 -0.30336,1.32258 -0.30452,1.51305 -0.79414,1.65398 -5.74622,1.65398 -4.08627,0 -4.4811,-0.0421 -4.96821,-0.52917 z m 14.80641,0.33073 c -0.006,-0.10914 0.43698,-2.49039 0.98358,-5.29167 l 0.99382,-5.09322 h 1.62947 1.62946 l -0.35479,1.65364 c -0.19513,0.90951 -0.35896,1.7427 -0.36407,1.85155 -0.005,0.10885 1.12095,-0.64053 2.50237,-1.66528 l 2.51167,-1.86317 1.83594,0.0778 1.83595,0.0778 -2.25232,1.71979 c -1.23877,0.94588 -2.49562,1.91006 -2.793,2.14261 -0.53262,0.41652 -0.51329,0.46386 1.29659,3.175 1.0105,1.5137 1.9253,2.90101 2.03288,3.08291 0.14891,0.25179 -0.24908,0.33073 -1.66748,0.33073 h -1.86308 l -1.41401,-2.11203 -1.41401,-2.11202 -1.10415,0.81199 c -1.1357,0.83521 -1.37597,1.11851 -0.74241,0.87539 0.29737,-0.11411 0.31467,0.0992 0.0972,1.19893 l -0.26451,1.33774 h -1.55244 c -0.85384,0 -1.55705,-0.0893 -1.56269,-0.19844 z m 16.41442,-0.33073 c -0.35278,-0.35278 -0.52917,-0.88194 -0.52917,-1.5875 v -1.05833 h 1.69149 c 1.25946,0 1.73038,0.10136 1.84378,0.39687 0.12249,0.3192 0.68471,0.39267 2.87258,0.37539 2.2867,-0.0181 2.61485,-0.0708 2.05882,-0.33073 -0.38199,-0.17858 -0.66146,-0.53281 -0.66146,-0.83841 0,-0.49047 -0.22048,-0.53884 -3.01524,-0.66145 -2.90226,-0.12734 -3.03528,-0.15919 -3.5499,-0.84986 -0.50184,-0.67353 -0.5139,-0.83366 -0.19664,-2.60895 0.51764,-2.89652 0.50716,-2.89119 5.68425,-2.89119 h 4.34642 l 0.54837,0.69714 c 0.55994,0.71185 0.67348,1.3148 0.38777,2.05934 -0.22403,0.58381 -3.15174,0.60258 -3.37467,0.0216 -0.12235,-0.31886 -0.68702,-0.39335 -2.87257,-0.37897 -2.15426,0.0142 -2.59642,0.0776 -2.12497,0.30502 0.32742,0.15791 0.59531,0.50704 0.59531,0.77584 0,0.44289 0.24983,0.48874 2.66323,0.48874 2.53158,0 3.56792,0.23226 4.01345,0.8995 0.28312,0.42403 0.24495,2.05143 -0.0841,3.58581 -0.43579,2.03199 -0.69132,2.12927 -5.59311,2.12927 -3.82168,0 -4.21918,-0.0447 -4.70363,-0.52917 z m 14.87554,0.11729 c -0.77957,-0.54603 -0.76422,-1.52797 0.0911,-5.82971 0.50703,-2.54997 0.81623,-3.53306 1.21994,-3.87872 0.46875,-0.40135 1.13596,-0.46302 5.00938,-0.46302 4.11583,0 4.51038,0.0418 4.99777,0.52916 0.68052,0.68052 0.67008,0.97237 -0.19155,5.3563 -0.46841,2.38323 -0.88883,3.84742 -1.20093,4.18242 -0.43901,0.47122 -0.86022,0.51545 -4.90895,0.51545 -3.58014,0 -4.54142,-0.0789 -5.01678,-0.41188 z m 8.2755,-2.28102 c -0.29104,-0.16256 -0.5688,-0.32756 -0.61725,-0.36667 -0.0485,-0.0391 0.10992,-1.04192 0.35193,-2.22846 0.24201,-1.18654 0.37468,-2.32761 0.29483,-2.5357 -0.11376,-0.29643 -0.76284,-0.37661 -2.99777,-0.37031 -2.24351,0.006 -2.73959,0.0712 -2.3234,0.30361 0.29104,0.16255 0.54929,0.30804 0.57389,0.32331 0.0246,0.0153 -0.17398,1.09805 -0.44129,2.40619 -0.36392,1.78097 -0.40838,2.42782 -0.17701,2.57501 0.16994,0.10811 1.55915,0.19477 3.08711,0.19257 2.18713,-0.003 2.66556,-0.0669 2.24896,-0.29955 z m 6.20746,2.49446 c -0.006,-0.10914 0.43697,-2.49039 0.98358,-5.29167 l 0.99382,-5.09322 h 2.80146 2.80145 l 0.76313,3.9626 c 0.41972,2.17943 0.79916,3.92657 0.84321,3.88253 0.044,-0.044 0.3773,-1.55933 0.74059,-3.36729 0.36328,-1.80797 0.72362,-3.55511 0.80076,-3.88253 0.12613,-0.53537 0.29958,-0.59531 1.72271,-0.59531 0.87035,0 1.58246,0.0394 1.58246,0.0875 0,0.12781 -1.8192,9.19856 -1.98562,9.90053 -0.13512,0.56997 -0.25781,0.59531 -2.88223,0.59531 h -2.7411 l -0.74801,-3.83646 c -0.41141,-2.11005 -0.81796,-3.83646 -0.90346,-3.83646 -0.0855,0 -0.49205,1.72641 -0.90346,3.83646 l -0.74801,3.83646 h -1.55551 c -0.85554,0 -1.56013,-0.0893 -1.56577,-0.19844 z m 4.77275,-8.00364 c 0,-0.14553 -0.24515,-0.26459 -0.54478,-0.26459 -0.29963,0 -0.4712,0.11906 -0.38126,0.26459 0.0899,0.14552 0.33509,0.26458 0.54478,0.26458 0.20969,0 0.38126,-0.11906 0.38126,-0.26458 z m -82.75085,-4.49649 c -1.11855,-0.68199 -1.91591,-2.01096 -1.90581,-3.17643 0.0161,-1.85739 3.87782,-20.137563 4.40796,-20.865898 0.27929,-0.383705 1.03662,-0.969262 1.68294,-1.301239 1.17422,-0.603125 1.18348,-0.603536 11.91173,-0.529167 l 10.73659,0.07443 0.9715,0.741281 c 1.78947,1.36542 2.14843,2.867545 1.48773,6.225783 l -0.32105,1.631894 h -3.96895 -3.96894 l 0.14322,-0.882602 c 0.2699,-1.6632 0.46163,-1.623242 -8.19836,-1.708664 -4.51683,-0.04455 -7.7674,0.02105 -7.61668,0.153712 0.14461,0.127289 1.01467,0.451308 1.93346,0.72004 1.45317,0.425028 1.6534,0.559949 1.53882,1.036913 -0.0724,0.30157 -0.62274,3.045157 -1.22289,6.096861 -1.02798,5.227176 -1.06438,5.568146 -0.62836,5.886976 0.33887,0.24779 1.86153,0.33843 5.68503,0.33843 5.78447,0 5.84931,-0.0179 6.16614,-1.70681 l 0.17617,-0.93902 h 3.95676 c 2.17622,0 3.95676,0.10102 3.95676,0.2245 0,0.83061 -1.3828,6.23551 -1.73144,6.76759 -0.23598,0.36016 -0.93304,0.89881 -1.54901,1.197 -1.0731,0.51947 -1.57311,0.54211 -11.95048,0.54117 -10.3405,-9.5e-4 -10.86955,-0.0248 -11.69284,-0.52675 z m 36.0332,-0.19987 c 0.28177,-1.31722 4.6489,-25.278304 4.6489,-25.50708 0,-0.123006 1.84547,-0.223648 4.10104,-0.223648 2.68839,0 4.10104,0.09572 4.10104,0.277872 0,0.569861 -3.19817,19.389316 -3.33173,19.605436 -0.0765,0.12376 -0.28088,0.22664 -0.45419,0.22862 -0.17332,0.002 -1.02949,0.22924 -1.90262,0.50503 l -1.5875,0.50144 1.89286,0.0241 1.89286,0.0241 5.51548,-10.58262 5.51547,-10.582619 3.74294,-7.15e-4 3.74294,-7.14e-4 0.66028,2.844271 c 0.36316,1.564349 1.41107,6.148255 2.32869,10.186458 0.91762,4.038199 1.74015,7.342189 1.82784,7.342189 0.0877,0 1.21512,-4.583907 2.50541,-10.186459 l 2.34598,-10.186459 h 4.0855 4.08549 l -0.13701,0.595313 c -0.0754,0.327421 -1.36075,6.280547 -2.85642,13.229166 l -2.71939,12.633859 h -6.94402 c -6.3856,0 -6.95487,-0.0372 -7.07889,-0.46303 -0.0742,-0.25466 -0.8158,-3.89499 -1.64807,-8.08963 l -1.51322,-7.626611 -1.34632,2.502626 c -0.74047,1.376444 -2.656,5.014025 -4.25673,8.083505 l -2.91042,5.58088 -7.23092,0.006 -7.23091,0.006 z"
       id="path1" /></g></svg>
